<svg width="49" height="59" viewBox="0 0 49 59" fill="none" xmlns="http://www.w3.org/2000/svg">
<path d="M40.5324 19.236C39.2691 19.236 38.0375 19.5265 36.9217 20.0746V8.6347C36.9589 4.80819 32.5847 2.41477 29.3951 4.48026C28.7521 -1.49528 20.2465 -1.4909 19.6057 4.48026C16.4153 2.41419 12.0416 4.80934 12.0792 8.6347V20.0746C6.76754 17.3574 0.136154 21.4951 0.235977 27.4688C0.235864 28.1067 0.753281 28.6241 1.39132 28.6241C3.30267 28.6241 4.85769 30.1792 4.85769 32.0905V39.4855C5.84826 65.515 43.1618 65.495 44.1431 39.4855V32.0905C44.1431 30.1792 45.6981 28.6241 47.6094 28.6241C48.2475 28.6241 48.7649 28.1067 48.7649 27.4687C48.7651 22.9292 45.0718 19.236 40.5324 19.236ZM41.8323 32.0905V39.4855C40.9582 62.4527 8.03446 62.4353 7.16872 39.4855V32.0905C7.16872 29.3317 5.22489 27.0183 2.63494 26.448C3.32463 22.157 8.61831 20.0312 12.0793 22.7851V24.4692C12.1361 26.0006 14.3339 25.9994 14.3901 24.4692V8.6347C14.5213 5.18972 19.4599 5.19225 19.5898 8.6347V21.5133C19.6465 23.0448 21.8444 23.0435 21.9007 21.5133V4.87948C22.0318 1.43448 26.9703 1.43703 27.1002 4.87948V21.5132C27.1571 23.0447 29.3548 23.0434 29.4112 21.5132V8.6347C29.5422 5.1896 34.4809 5.19238 34.6108 8.6347V24.4692C34.6677 26.0006 36.8655 25.9994 36.9217 24.4692V22.7851C40.3834 20.0304 45.6771 22.1585 46.366 26.448C43.7762 27.0183 41.8323 29.3317 41.8323 32.0905Z" fill="#655049"/>
<path d="M24.5008 24.4644C16.218 24.4644 9.47974 31.2028 9.47974 39.4853C10.2349 59.3851 38.7695 59.3799 39.5215 39.485C39.5215 31.2028 32.7831 24.4644 24.5008 24.4644ZM24.5008 52.1952C17.4924 52.1952 11.7907 46.4936 11.7907 39.4853C12.4296 22.6469 36.5742 22.6513 37.2106 39.4854C37.2106 46.4936 31.509 52.1952 24.5008 52.1952Z" fill="#655049"/>
<path d="M24.5006 29.0864C18.7666 29.0864 14.1016 33.7514 14.1016 39.4855C14.6244 53.2624 34.3791 53.2587 34.8997 39.4854C34.8997 33.7513 30.2347 29.0864 24.5006 29.0864ZM28.3764 38.3301C28.2963 38.0616 28.1889 37.8047 28.0574 37.5626L30.9759 34.6442C31.7694 35.7028 32.3097 36.9617 32.5064 38.3301H28.3764ZM24.5006 41.2187C23.545 41.2187 22.7674 40.4412 22.7674 39.4855C22.8545 37.1894 26.147 37.19 26.2338 39.4855C26.2338 40.4412 25.4563 41.2187 24.5006 41.2187ZM26.4234 35.9284C26.1814 35.7971 25.9245 35.6897 25.6559 35.6096V31.4796C27.0243 31.6761 28.2833 32.2164 29.3419 33.0101L26.4234 35.9284ZM23.345 35.6096C23.0766 35.6898 22.8198 35.7971 22.5777 35.9284L19.6592 33.0101C20.7178 32.2164 21.9767 31.6761 23.345 31.4796V35.6096ZM22.5776 43.0424C22.8196 43.1739 23.0765 43.2813 23.345 43.3615V47.4914C21.9767 47.295 20.7178 46.7545 19.6592 45.9609L22.5776 43.0424ZM25.6559 43.3615C25.9245 43.2813 26.1815 43.1739 26.4235 43.0424L29.342 45.9609C28.2833 46.7545 27.0243 47.295 25.6559 47.4914V43.3615ZM18.0251 34.6444L20.9436 37.5627C20.8121 37.8049 20.7048 38.0617 20.6246 38.3301H16.4947C16.6913 36.9618 17.2316 35.703 18.0251 34.6444ZM16.4947 40.641H20.6246C20.7048 40.9095 20.8121 41.1664 20.9436 41.4084L18.0251 44.3268C17.2316 43.2681 16.6913 42.0093 16.4947 40.641ZM30.9759 44.3269L28.0576 41.4084C28.1889 41.1664 28.2963 40.9095 28.3765 40.641H32.5065C32.3098 42.0094 31.7694 43.2681 30.9759 44.3269Z" fill="#655049"/>
</svg>
