<svg width="59" height="59" viewBox="0 0 59 59" fill="none" xmlns="http://www.w3.org/2000/svg">
<path d="M29.5002 15.2361C21.6351 15.2361 15.2363 21.6348 15.2363 29.4999C15.9534 48.3969 43.0499 48.3916 43.7642 29.4997C43.7642 21.6348 37.3654 15.2361 29.5002 15.2361ZM29.5002 41.4585C22.9063 41.4585 17.5416 36.0939 17.5416 29.4999C18.1428 13.657 40.8601 13.6614 41.4589 29.5C41.4589 36.0939 36.0942 41.4585 29.5002 41.4585Z" fill="#655049"/>
<path d="M58.2907 28.4329C54.7157 26.7254 53.8925 21.9547 48.7122 21.542C52.085 17.5805 49.2911 13.6377 50.6127 9.8963C50.7939 9.46463 50.696 8.96624 50.3649 8.63509C50.0339 8.30405 49.5354 8.20608 49.1038 8.38739C47.8396 8.91806 46.3763 8.79138 44.8271 8.65734C42.5582 8.46082 39.8547 8.22683 37.458 10.2878C37.0418 5.10182 32.2782 4.28932 30.567 0.709257C30.196 -0.236592 28.8041 -0.236246 28.4331 0.709257C26.7255 4.28437 21.9549 5.10747 21.5421 10.288C19.1453 8.22683 16.4419 8.46082 14.1731 8.65734C12.624 8.79138 11.1606 8.91806 9.89636 8.38739C9.46435 8.20596 8.96619 8.30417 8.63514 8.63509C8.3041 8.96624 8.20613 9.46463 8.38744 9.8963C9.70802 13.6317 6.91679 17.5869 10.288 21.542C7.13614 21.7795 5.38966 23.8566 3.92431 25.5998C2.9237 26.7901 1.97854 27.9143 0.709261 28.433C-0.236593 28.8041 -0.236248 30.196 0.709261 30.567C1.97854 31.0857 2.92359 32.2099 3.92431 33.4002C5.38978 35.1436 7.13557 37.2207 10.288 37.4579C6.91518 41.4193 9.70894 45.3622 8.38744 49.1037C8.20625 49.5354 8.3041 50.0337 8.63514 50.3649C8.96721 50.6977 9.46884 50.7929 9.89636 50.6127C11.1607 50.0819 12.624 50.2085 14.1731 50.3427C16.442 50.539 19.1455 50.773 21.5421 48.712C21.9584 53.8982 26.722 54.7106 28.4331 58.2907C28.8042 59.2366 30.196 59.2362 30.567 58.2907C32.2745 54.7157 37.0453 53.8926 37.458 48.712C39.8547 50.7731 42.5583 50.539 44.8271 50.3427C46.3761 50.2085 47.8395 50.0818 49.1038 50.6127C49.5312 50.7929 50.0329 50.6975 50.3649 50.3649C50.696 50.0337 50.794 49.5354 50.6127 49.1037C49.2921 45.3683 52.0834 41.4129 48.7122 37.4579C53.8984 37.0417 54.7106 32.2782 58.2908 30.567C59.2366 30.1958 59.2362 28.804 58.2907 28.4329ZM29.4999 46.0689C20.3636 46.0689 12.9307 38.636 12.9307 29.4999C13.7637 7.54908 45.2392 7.55508 46.0688 29.5001C46.069 38.636 38.6362 46.0689 29.4999 46.0689ZM44.6281 10.9539C45.7286 11.0493 46.8525 11.1466 47.9776 11.0224C47.5644 14.4751 49.4791 18.1546 46.2271 20.7623C45.514 19.4025 44.6399 18.1399 43.6302 17L45.0877 15.5425C46.1293 14.4259 44.573 12.8711 43.4575 13.9124L42.0001 15.3698C40.8601 14.3601 39.5974 13.4861 38.2376 12.7729C40.0749 10.5598 42.1185 10.7367 44.6281 10.9539ZM27.0831 5.68873C27.9287 4.9779 28.7921 4.25209 29.4999 3.36872C30.2078 4.25209 31.0712 4.9779 31.9168 5.68873C33.844 7.30876 35.4135 8.62818 35.1497 11.4892C33.7162 11.0386 32.2095 10.7548 30.6525 10.6605V8.60847C30.5959 7.08077 28.4035 7.08192 28.3474 8.60847V10.6606C26.7904 10.7549 25.2838 11.0387 23.8502 11.4893C23.5863 8.62829 25.1558 7.30876 27.0831 5.68873ZM10.9538 14.3718C11.0491 13.2714 11.1464 12.1476 11.0222 11.0224C12.1472 11.1464 13.2713 11.0492 14.3717 10.9539C16.8812 10.7369 18.9248 10.5598 20.7621 12.7728C19.4023 13.4859 18.1397 14.3601 16.9997 15.3697L15.5423 13.9122C14.4257 12.8706 12.8708 14.4269 13.9121 15.5424L15.3695 16.9998C14.3599 18.1398 13.4858 19.4025 12.7727 20.7622C10.5596 18.9249 10.7365 16.8812 10.9538 14.3718ZM5.68854 31.9167C4.97771 31.0711 4.25189 30.2077 3.36852 29.4999C4.25189 28.7921 4.97771 27.9287 5.68854 27.0831C7.30858 25.156 8.62823 23.5864 11.4891 23.8501C11.0384 25.2837 10.7546 26.7903 10.6603 28.3473H8.60829C7.08058 28.4039 7.08174 30.5963 8.60829 30.6526H10.6604C10.7547 32.2096 11.0385 33.7161 11.4892 35.1496C8.62811 35.4134 7.30858 33.8439 5.68854 31.9167ZM14.3717 48.0459C13.2711 47.9506 12.1475 47.8534 11.0222 47.9775C11.4354 44.5249 9.52071 40.8454 12.7727 38.2377C13.4858 39.5975 14.3599 40.8601 15.3695 42.0001L13.9121 43.4575C12.8704 44.5742 14.4268 46.1288 15.5423 45.0876L16.9997 43.6302C18.1397 44.6399 19.4023 45.5139 20.7621 46.2271C18.9248 48.44 16.8812 48.263 14.3717 48.0459ZM31.9167 53.311C31.0711 54.0219 30.2076 54.7477 29.4999 55.6311C28.792 54.7477 27.9286 54.0219 27.083 53.311C25.156 51.691 23.5863 50.3717 23.85 47.5105C25.2836 47.9612 26.7903 48.245 28.3473 48.3393V50.3915C28.4039 51.9191 30.5963 51.918 30.6525 50.3915V48.3393C32.2095 48.245 33.716 47.9612 35.1496 47.5105C35.4134 50.3717 33.8438 51.6911 31.9167 53.311ZM48.046 44.6281C47.9507 45.7285 47.8535 46.8524 47.9776 47.9775C46.8525 47.8534 45.7284 47.9508 44.6281 48.0459C42.1185 48.2632 40.0749 48.44 38.2377 46.2271C39.5975 45.5139 40.8601 44.6399 42.0001 43.6302L43.4575 45.0876C44.574 46.1293 46.1291 44.573 45.0877 43.4575L43.6302 42.0001C44.6399 40.8601 45.514 39.5974 46.2271 38.2377C48.4402 40.0749 48.2631 42.1187 48.046 44.6281ZM53.3112 31.9167C51.6911 33.8439 50.3716 35.4134 47.5106 35.1496C47.9612 33.7162 48.2451 32.2096 48.3393 30.6526H50.3916C51.9192 30.5958 51.918 28.4034 50.3916 28.3473H48.3393C48.2451 26.7903 47.9612 25.2837 47.5106 23.8501C51.65 23.3971 52.8995 27.3521 55.6312 29.4999C54.7478 30.2077 54.022 31.0711 53.3112 31.9167Z" fill="#655049"/>
<path d="M39.4702 28.9203C35.1435 21.3002 23.8555 21.3024 19.5307 28.9203C19.3221 29.2787 19.3221 29.7214 19.5307 30.08C23.857 37.7003 35.1453 37.698 39.4702 30.08C39.6787 29.7214 39.6787 29.2787 39.4702 28.9203ZM29.5003 32.3817C27.9115 32.3817 26.6187 31.089 26.6187 29.5001C26.7636 25.6826 32.2376 25.6837 32.3819 29.5001C32.3819 31.089 31.0892 32.3817 29.5003 32.3817ZM21.8897 29.5001C22.7621 28.2275 23.9291 27.2067 25.2642 26.5102C24.0103 28.1829 24.0103 30.8176 25.2642 32.4902C23.9291 31.7937 22.7622 30.7728 21.8897 29.5001ZM33.7366 32.4902C34.9905 30.8175 34.9904 28.1828 33.7366 26.5102C35.0717 27.2067 36.2386 28.2275 37.1111 29.5001C36.2386 30.7728 35.0716 31.7936 33.7366 32.4902Z" fill="#655049"/>
</svg>
