<svg width="57" height="56" viewBox="0 0 57 56" fill="none" xmlns="http://www.w3.org/2000/svg">
<path d="M56.9504 35.0934C55.7027 31.0601 52.3738 27.9717 48.2625 27.0332C44.9838 26.2845 41.5598 26.9839 38.8499 28.8661C38.8052 27.4803 38.487 26.1622 37.9478 24.9645C45.7344 26.2891 52.7848 19.3282 51.5352 11.4988C51.4762 11.1047 51.2111 10.7723 50.8401 10.627C46.9089 9.0877 42.4187 9.7648 39.1216 12.3939C36.4909 14.4916 34.9026 17.6064 34.6856 20.9006C33.6207 20.1042 32.3979 19.5078 31.0739 19.167C36.958 13.9432 35.9051 4.01838 29.0148 0.149625C28.6702 -0.049875 28.2447 -0.049875 27.8999 0.149625C21.0018 4.02261 19.9572 13.9637 25.8567 19.1813C24.535 19.5291 23.3157 20.1321 22.2549 20.9342C22.0327 17.6478 20.4459 14.5416 17.8209 12.4483C14.5238 9.81901 10.0339 9.14158 6.10238 10.6806C5.73145 10.8259 5.46626 11.1583 5.40726 11.5523C4.7816 15.7273 6.44105 19.9542 9.73792 22.5836C12.3677 24.6797 15.751 25.5359 19.0144 25.0155C18.4817 26.2159 18.1707 27.5356 18.1335 28.9222C15.4264 27.0489 12.0102 26.3538 8.73829 27.1004C4.62685 28.0387 1.29759 31.1269 0.0498252 35.16C-0.068071 35.5407 0.0266689 35.9552 0.297864 36.247C5.72265 42.1295 15.4493 40.9344 19.3086 34.0019C19.9368 35.1996 20.7925 36.2603 21.8181 37.1257C18.6631 38.0734 15.9878 40.3118 14.5308 43.337C12.7009 47.1364 13.0397 51.6649 15.4147 55.155C15.6383 55.4848 16.0255 55.6693 16.4193 55.6387C20.6288 55.3198 24.3805 52.7614 26.2103 48.962C27.6694 45.9325 27.7495 42.4394 26.518 39.3786C27.8073 39.6329 29.2344 39.629 30.5214 39.3678C27.4856 46.627 32.7414 55.1128 40.6271 55.6089C41.021 55.6397 41.4082 55.455 41.6317 55.1253C46.1684 48.6395 42.7918 39.2277 35.209 37.0896C36.2298 36.2187 37.0801 35.1538 37.702 33.9522C39.3279 36.8155 42.1047 38.9245 45.377 39.6716C49.4473 40.6092 53.8283 39.2819 56.7019 36.1804C56.9734 35.8885 57.068 35.4738 56.9504 35.0934ZM24.2044 47.9956C22.8136 50.8834 20.0555 52.8884 16.9046 53.3462C15.298 50.5971 15.1461 47.1907 16.5369 44.303C17.9275 41.4155 20.6859 39.4105 23.8367 38.9525C25.4431 41.7014 25.5951 45.1082 24.2044 47.9956ZM40.5105 44.2732C41.9009 47.1608 41.7487 50.5676 40.1422 53.3164C36.9913 52.8581 34.2331 50.853 32.8427 47.9654C31.4522 45.0776 31.6042 41.6712 33.2111 38.9222C36.362 39.3801 39.1199 41.3853 40.5105 44.2732ZM40.5098 14.1349C43.0158 12.1366 46.3705 11.5268 49.4082 12.4817C50.0361 19.1821 43.3073 24.5451 36.9171 22.4418C36.6624 19.268 38.0036 16.1331 40.5098 14.1349ZM24.2022 10.4135C24.2022 7.20826 25.8171 4.20519 28.4574 2.4255C34.0877 6.1119 34.0862 14.7161 28.4574 18.4014C25.8171 16.6218 24.2022 13.6186 24.2022 10.4135ZM11.1264 20.8425C8.6204 18.8441 7.27935 15.7093 7.53428 12.5353C10.5718 11.5809 13.9269 12.1908 16.4326 14.1889C18.9386 16.1875 20.2796 19.3223 20.0247 22.4964C16.9877 23.4506 13.6322 22.8409 11.1264 20.8425ZM11.1274 37.5682C8.00253 38.2813 4.71536 37.3751 2.39273 35.197C3.54051 32.2271 6.10907 29.9841 9.23371 29.2711C12.3584 28.5578 15.6458 29.4641 17.9682 31.6422C16.8207 34.6124 14.2523 36.8549 11.1274 37.5682ZM28.4926 37.3405C24.0062 37.3405 20.3564 33.6906 20.3564 29.2043C20.7653 18.4254 36.2213 18.4282 36.6287 29.2044C36.6287 33.6906 32.9789 37.3405 28.4926 37.3405ZM45.8729 37.5009C42.7481 36.7874 40.1797 34.5446 39.0323 31.5744C43.8795 26.9061 52.2674 28.8222 54.6075 35.1301C52.2848 37.3079 48.9973 38.214 45.8729 37.5009Z" fill="#655049"/>
<path d="M28.4929 23.6377C25.4236 23.6377 22.9265 26.1348 22.9265 29.2042C23.2064 36.5788 33.7805 36.5765 34.0593 29.204C34.0593 26.1348 31.5621 23.6377 28.4929 23.6377ZM28.4929 32.544C26.6513 32.544 25.153 31.0458 25.153 29.2042C25.321 24.7793 31.6656 24.7807 31.8328 29.2042C31.8328 31.0458 30.3346 32.544 28.4929 32.544Z" fill="#655049"/>
<path d="M28.4572 14.0297C29.0719 14.0297 29.5705 13.5312 29.5705 12.9163V7.91117C29.5157 6.43563 27.3982 6.43674 27.344 7.91117V12.9162C27.344 13.5312 27.8424 14.0297 28.4572 14.0297Z" fill="#655049"/>
<path d="M16.4305 18.2054L12.5174 15.0847C12.0369 14.7014 11.3364 14.7803 10.9528 15.2609C10.5696 15.7417 10.6485 16.442 11.1291 16.8254L15.0421 19.9462C16.2239 20.825 17.5517 19.1656 16.4305 18.2054Z" fill="#655049"/>
<path d="M6.65584 34.2244C6.79 34.8281 7.40497 35.2002 7.98889 35.0619L12.8685 33.9483C13.468 33.8115 13.8431 33.2147 13.7062 32.6151C13.5694 32.0158 12.9725 31.6404 12.3731 31.7775L7.49348 32.8912C6.89409 33.028 6.51902 33.6249 6.65584 34.2244Z" fill="#655049"/>
<path d="M21.9392 42.8915C21.3856 42.6248 20.7199 42.8574 20.4531 43.4114L18.2811 47.9208C18.0145 48.4748 18.2471 49.1401 18.8012 49.407C19.3427 49.6715 20.0196 49.4465 20.2873 48.887L22.4592 44.3776C22.726 43.8236 22.4933 43.1584 21.9392 42.8915Z" fill="#655049"/>
<path d="M36.7593 48.8573C37.027 49.4169 37.7038 49.6417 38.2455 49.3773C38.7995 49.1106 39.0322 48.4452 38.7655 47.8912L36.5939 43.3816C36.3272 42.8276 35.6618 42.5951 35.1078 42.8616C34.5538 43.1284 34.3211 43.7938 34.5878 44.3477L36.7593 48.8573Z" fill="#655049"/>
<path d="M49.5073 32.8238L44.6277 31.7099C44.0282 31.5728 43.4313 31.9481 43.2945 32.5474C43.1577 33.1468 43.5327 33.7437 44.132 33.8806L49.0116 34.9945C49.5954 35.1328 50.2106 34.7607 50.3448 34.157C50.4817 33.5576 50.1069 32.9606 49.5073 32.8238Z" fill="#655049"/>
<path d="M41.2071 20.1354C41.4502 20.1354 41.6953 20.0561 41.9004 19.8925L45.8136 16.7721C46.2944 16.3888 46.3733 15.6883 45.99 15.2075C45.6069 14.7269 44.9066 14.6479 44.4255 15.0312L40.5123 18.1517C40.0315 18.535 39.9526 19.2355 40.3359 19.7161C40.5557 19.9919 40.8797 20.1354 41.2071 20.1354Z" fill="#655049"/>
</svg>
