<svg width="56" height="59" viewBox="0 0 56 59" fill="none" xmlns="http://www.w3.org/2000/svg">
<path d="M47.1747 15.6181C46.9781 15.0611 46.4182 14.7562 45.883 14.9159L43.6359 15.5848L39.4917 5.93285C39.3716 5.65308 39.1521 5.43656 38.8822 5.33159C38.6125 5.22685 38.3146 5.24205 38.0551 5.374L34.3659 7.25384L28.8109 0.392873C28.4061 -0.130958 27.5937 -0.130958 27.1889 0.392873L21.634 7.25406L17.9448 5.37422C17.6856 5.24217 17.3876 5.22707 17.1177 5.33182C16.8479 5.43679 16.6283 5.6533 16.5082 5.93308L12.3642 15.585L10.1168 14.9161C9.58158 14.7563 9.02171 15.0612 8.82514 15.6184C1.99355 34.1863 4.16444 59.47 28.0002 58.9931C51.8337 59.4742 54.0079 34.1756 47.1747 15.6181ZM44.8316 48.7982C41.4609 54.034 35.7979 56.6889 28 56.6889C6.18442 57.1928 4.7446 34.3255 10.4969 17.4207L12.6703 18.0675C13.178 18.2186 13.7128 17.9525 13.9332 17.4393L18.0049 7.95616L21.449 9.71121C21.8848 9.93314 22.4047 9.81642 22.7209 9.4259L28 2.90567L33.2789 9.4259C33.595 9.81642 34.1148 9.93303 34.5508 9.71121L37.9951 7.95616L42.0667 17.4393C42.2871 17.9525 42.8222 18.2186 43.3296 18.0675L45.5029 17.4207C48.6372 26.8815 50.2462 40.3874 44.8316 48.7982Z" fill="#655049"/>
<path d="M28.8094 9.95507C28.4047 9.43321 27.5947 9.43333 27.19 9.95507C26.7859 10.4522 26.3528 10.9796 25.8978 11.5331C20.5317 18.0651 12.4221 27.9359 12.4221 36.291C12.4221 45.5052 19.4102 53.0015 27.9998 53.0015C36.5894 53.0015 43.5775 45.5052 43.5775 36.291C43.5775 27.9358 35.4679 18.0649 30.1017 11.5331C29.6466 10.9796 29.2135 10.4522 28.8094 9.95507ZM27.9996 50.6969C20.5947 50.6969 14.5704 44.2344 14.5704 36.291C14.5704 28.8064 22.3571 19.3287 27.5097 13.057C27.6761 12.8543 27.8394 12.6554 27.9996 12.46C28.16 12.6553 28.3234 12.8543 28.4897 13.057C33.6423 19.3287 41.429 28.8064 41.429 36.291C41.429 44.2344 35.4046 50.6969 27.9996 50.6969Z" fill="#655049"/>
<path d="M27.1902 25.396C27.0234 25.6011 26.8447 25.8186 26.657 26.0471C24.3716 28.829 20.9177 33.033 20.9177 36.7489C20.9177 40.9379 24.0947 44.3463 27.9999 44.3463C31.9051 44.3463 35.0821 40.9381 35.0821 36.7489C35.0821 33.033 31.6283 28.829 29.3427 26.0471C29.1551 25.8186 28.9763 25.6011 28.8096 25.396C28.4049 24.8741 27.595 24.8743 27.1902 25.396ZM32.9338 36.7489C32.6853 43.7614 23.3129 43.7583 23.0661 36.7488C23.0661 34.0311 26.0378 30.2921 28 27.8984C29.9621 30.2922 32.9338 34.0311 32.9338 36.7489Z" fill="#655049"/>
</svg>
