<svg width="60" height="60" viewBox="0 0 60 60" fill="none" xmlns="http://www.w3.org/2000/svg">
<path fill-rule="evenodd" clip-rule="evenodd" d="M58.9152 30.0073C58.919 45.9767 45.9765 58.9191 30.0073 58.9152C14.0378 58.9112 1.08863 45.9622 1.08482 29.9927C1.08102 14.0235 14.0235 1.08103 29.9927 1.08483C45.9622 1.08878 58.9112 14.0378 58.9152 30.0073ZM30.007 60C46.5756 60.0041 60.0039 46.5757 60 30.007C59.9959 13.4386 46.5614 0.00410575 29.993 1.76855e-06C13.4244 -0.00394259 -0.00394488 13.4244 8.69333e-07 29.993C0.00394656 46.5614 13.4386 59.9959 30.007 60Z" fill="#655049"/>
<path fill-rule="evenodd" clip-rule="evenodd" d="M29.7905 40.6772L40.2465 30.2213L29.7905 19.7655L19.3347 30.2213L29.7905 40.6772ZM29.7905 39.1431L20.8689 30.2213L29.7905 21.2997L38.7123 30.2213L29.7905 39.1431Z" fill="#655049"/>
<path fill-rule="evenodd" clip-rule="evenodd" d="M29.8076 21.3052L40.2634 10.8494L29.8076 0.393591L19.3518 10.8494L29.8076 21.3052ZM20.886 10.8494L29.8076 1.92776L38.7292 10.8494L29.8076 19.771L20.886 10.8494Z" fill="#655049"/>
<path fill-rule="evenodd" clip-rule="evenodd" d="M10.5923 40.4863L21.0482 30.0305L10.5923 19.5747L0.136475 30.0305L10.5923 40.4863ZM10.5923 38.9522L1.67065 30.0305L10.5923 21.1089L19.514 30.0305L10.5923 38.9522Z" fill="#655049"/>
<path fill-rule="evenodd" clip-rule="evenodd" d="M29.7897 59.8621L40.2455 49.4061L29.7897 38.9502L19.3337 49.4061L29.7897 59.8621ZM20.8679 49.4061L29.7897 40.4843L38.7113 49.4061L29.7897 58.3279L20.8679 49.4061Z" fill="#655049"/>
<path fill-rule="evenodd" clip-rule="evenodd" d="M49.2873 40.4863L59.743 30.0305L49.2873 19.5747L38.8313 30.0305L49.2873 40.4863ZM40.3655 30.0305L49.2872 21.1089L58.2089 30.0305L49.2872 38.9522L40.3655 30.0305Z" fill="#655049"/>
<path fill-rule="evenodd" clip-rule="evenodd" d="M44.6834 44.9721C36.4529 53.2028 23.1085 53.2028 14.8777 44.9721L14.8777 44.9721C6.64701 36.7415 6.64701 23.397 14.8777 15.1664L14.4942 14.7829L14.8777 15.1664C23.1085 6.93568 36.4529 6.93569 44.6834 15.1664L45.067 14.7829L44.6834 15.1664C52.9142 23.397 52.9142 36.7415 44.6834 44.9721L45.067 45.3557L44.6834 44.9721ZM14.1107 45.7392C22.765 54.3936 36.7963 54.3936 45.4505 45.7392C54.1049 37.085 54.1049 23.0536 45.4505 14.3993C36.7963 5.74495 22.765 5.74495 14.1107 14.3993C5.45628 23.0535 5.45628 37.085 14.1107 45.7392C14.1107 45.7392 14.1107 45.7392 14.1107 45.7392Z" fill="#655049"/>
<path fill-rule="evenodd" clip-rule="evenodd" d="M36.2575 36.6307C32.7035 40.1848 26.9411 40.1848 23.3868 36.6307C23.3868 36.6307 23.3868 36.6307 23.3868 36.6307M23.3868 36.6307C19.8328 33.0765 19.8328 27.3141 23.3868 23.7601C26.9411 20.206 32.7035 20.206 36.2575 23.7601C39.8116 27.3141 39.8116 33.0765 36.2575 36.6307M37.0246 37.3978L36.658 37.0312L37.0246 37.3978C41.0023 33.42 41.0023 26.9707 37.0246 22.993C33.0469 19.0153 26.5976 19.0153 22.6198 22.993L23.0033 23.3765L22.6198 22.993C18.642 26.9707 18.6421 33.42 22.6197 37.3978L22.6198 37.3978C26.5976 41.3755 33.0469 41.3755 37.0246 37.3978Z" fill="#655049"/>
<path fill-rule="evenodd" clip-rule="evenodd" d="M34.2371 34.639C31.783 37.0932 27.8042 37.0932 25.35 34.639C22.8958 32.1848 22.8958 28.206 25.35 25.7518C27.8043 23.2977 31.7831 23.2977 34.2371 25.7518L34.2371 25.7518C36.6915 28.206 36.6915 32.1848 34.2371 34.639L34.2371 34.639ZM24.583 35.4061C27.4608 38.2839 32.1265 38.2839 35.0042 35.4061C37.8822 32.5282 37.8822 27.8625 35.0042 24.9847M35.0042 24.9847C32.1265 22.107 27.4608 22.107 24.583 24.9847L24.583 24.9847C21.7051 27.8625 21.7051 32.5282 24.583 35.4061" fill="#655049"/>
<path fill-rule="evenodd" clip-rule="evenodd" d="M30.2582 33.606V26.3978H29.1733V33.606H30.2582Z" fill="#655049"/>
<path fill-rule="evenodd" clip-rule="evenodd" d="M33.2224 29.6178H26.1443V30.7026H33.2224V29.6178Z" fill="#655049"/>
<path fill-rule="evenodd" clip-rule="evenodd" d="M29.6834 33.2221C27.9924 33.2221 26.6217 31.8513 26.6217 30.1604C26.6217 28.4695 27.9924 27.0987 29.6834 27.0987C31.3743 27.0987 32.745 28.4695 32.745 30.1604C32.745 31.8513 31.3743 33.2221 29.6834 33.2221ZM25.5369 30.1604C25.5369 32.4504 27.3933 34.3069 29.6834 34.3069C31.9734 34.3069 33.8299 32.4504 33.8299 30.1604C33.8299 27.8703 31.9734 26.0139 29.6834 26.0139C27.3933 26.0139 25.5369 27.8703 25.5369 30.1604Z" fill="#655049"/>
</svg>
