<svg width="82" height="81" viewBox="0 0 82 81" fill="none" xmlns="http://www.w3.org/2000/svg">
<path d="M53.1501 40.2467C53.1501 46.5749 47.961 51.7639 41.6329 51.7639C35.3048 51.7639 30.1157 46.5749 30.1157 40.2467C30.1157 25.3124 41.6329 14.0483 41.6329 9.36548C41.6329 14.0483 53.1501 24.553 53.1501 40.2467Z" stroke="white" stroke-opacity="0.7" stroke-width="2" stroke-miterlimit="10" stroke-linecap="round" stroke-linejoin="round"/>
<path d="M55.4282 27.8437C61.6298 26.1984 66.9454 26.4515 68.8438 24.4265C65.5532 27.7171 68.8438 40.6265 57.8329 51.6375C54.4157 55.0546 49.4798 55.814 45.3032 54.1687" stroke="white" stroke-opacity="0.7" stroke-width="2" stroke-miterlimit="10" stroke-linecap="round" stroke-linejoin="round"/>
<path d="M27.7109 28.097C21.0031 26.1985 15.1813 26.4515 13.1562 24.4265C16.4469 27.7171 13.1563 40.6265 24.1672 51.6375C27.5844 55.0546 32.6469 55.8141 36.8234 54.0423" stroke="white" stroke-opacity="0.7" stroke-width="2" stroke-miterlimit="10" stroke-linecap="round" stroke-linejoin="round"/>
<path d="M14.675 44.0437C8.85308 47.3343 4.92964 51.511 2.14526 51.511C6.82808 51.511 13.5359 63.0281 29.2296 63.0281C33.1531 63.0281 36.6968 61.0031 38.7218 57.9656" stroke="white" stroke-opacity="0.7" stroke-width="2" stroke-miterlimit="10" stroke-linecap="round" stroke-linejoin="round"/>
<path d="M67.0719 44.4236C72.6407 47.7142 76.4375 51.6376 79.0954 51.6376C74.4125 51.6376 67.7047 63.1548 52.011 63.1548C48.0875 63.1548 44.5438 61.1298 42.5188 58.0923C41.2532 56.3205 40.6204 54.0423 40.6204 51.6376" stroke="white" stroke-opacity="0.7" stroke-width="2" stroke-miterlimit="10" stroke-linecap="round" stroke-linejoin="round"/>
</svg>
