<svg width="816" height="377" viewBox="0 0 816 377" fill="none" xmlns="http://www.w3.org/2000/svg">
<path d="M815.697 369.745C814.609 362.355 785.054 353.011 769.408 339.971C753.762 326.931 755.715 312.373 741.157 311.503C726.598 310.633 722.901 326.714 707.038 324.543C691.175 322.368 628.152 300.855 583.82 300.855C539.488 300.855 538.184 309.114 501.024 303.895C463.865 298.68 443.978 297.267 422.356 298.571C400.734 299.876 386.932 294.552 386.171 293.139C385.41 291.725 371.448 270.376 338.037 265.484C304.624 260.595 299.247 269.394 287.35 264.67C276.725 260.448 269.496 231.594 275.611 207.44C276.864 202.499 280.156 192.799 280.557 180.412C281.157 171.061 280.024 161.924 276.882 151.632C271.993 131.262 269.301 125.698 262.582 117.689C262.35 115.23 262.166 109.654 264.483 105.095C267.704 106.186 276.185 107.131 287.594 93.8024C288.738 96.9368 291.085 99.985 295.528 102.171C308.654 108.635 316.933 100.289 322.17 93.9673C329.017 85.7076 333.906 70.7141 325.429 62.5668C319.366 56.7366 311.646 57.9776 307.323 59.3649C310.641 48.9493 309.528 41.8218 306.903 35.5117C302.501 24.9161 290.129 10.0351 272.08 3.35005C263.902 0.320605 250.277 -1.97772 236.738 2.53646C225.494 6.28578 221.824 14.4068 220.928 17.26C220.031 20.1133 220.301 24.5412 205.96 27.6381C192.182 30.6151 197.431 34.5931 199.44 37.1989C201.45 39.8084 199.047 42.3617 197.581 42.5642C196.115 42.7666 194.769 44.1539 195.338 47.0071C195.338 47.0071 192.406 47.5358 192.853 51.0826C193.303 54.6295 191.638 56.2417 189.958 57.8314C187.615 60.051 185.47 64.149 191.312 69.2181C197.258 74.3809 206.991 71.2915 210.414 81.6396C213.838 91.9877 216.335 112.661 209.166 133.305C209.166 133.305 171.572 178.072 167.009 186.763C166.506 187.723 166.034 188.776 165.599 189.89C160.477 199.653 160.271 208.486 164.069 215.985C164.508 217.215 165.048 218.347 165.704 219.36C165.876 219.626 166.158 219.862 166.536 220.076C165.798 221.275 154.235 239.951 142.672 251.307C130.719 263.043 118.766 283.034 107.683 300.202C100.691 311.034 88.2692 328.048 78.7047 339.953C78.7047 339.953 23.2448 343.293 21.5688 348.239C20.1291 352.494 40.1767 355.741 57.6823 356.018C41.4627 359.839 22.2662 365.02 13.684 366.693C2.51105 368.867 -2.4568 372.137 1.77993 375.504C6.01666 378.87 53.7867 375.504 60.9592 375.504C68.1316 375.504 78.0185 373.003 84.5386 367.03C91.0587 361.054 99.8583 353.229 112.681 344.103C125.504 334.977 147.452 306.291 157.23 289.123C167.009 271.955 178.744 261.089 178.744 261.089C178.744 261.089 210.036 333.455 251.327 352.798C292.618 372.14 374.98 371.923 412.574 372.14C450.168 372.358 501.455 368.23 535.792 360.84C570.128 353.45 637.278 352.149 676.612 355.407C715.946 358.665 757.237 368.882 771.796 372.358C786.355 375.834 816.78 377.138 815.693 369.748L815.697 369.745Z" fill="#231F20" fill-opacity="0.05"/>
</svg>
