<svg width="20" height="20" viewBox="0 0 20 20" fill="none" xmlns="http://www.w3.org/2000/svg">
<path d="M2.85293 20C1.84453 18.365 1.16026 16.6494 0.800119 14.8532C0.439976 13.034 0.403962 11.2378 0.692076 9.46459C0.98019 7.69142 1.58043 5.99885 2.49279 4.38687C3.40515 2.75187 4.61763 1.28958 6.13023 0L8.075 1.17444C8.43514 1.40472 8.59121 1.69257 8.54319 2.038C8.51918 2.36039 8.41114 2.6137 8.21906 2.79793C7.59481 3.53483 7.0546 4.43293 6.59842 5.49223C6.16624 6.55152 5.89014 7.69142 5.77009 8.91192C5.65004 10.1094 5.71006 11.3529 5.95016 12.6425C6.19025 13.9321 6.68245 15.1756 7.42674 16.3731C7.73887 16.8566 7.8229 17.2942 7.67884 17.6857C7.5588 18.0541 7.27068 18.3305 6.8145 18.5147L2.85293 20ZM13.8013 20C12.7929 18.365 12.1086 16.6494 11.7485 14.8532C11.3883 13.034 11.3523 11.2378 11.6404 9.46459C11.9285 7.69142 12.5288 5.99885 13.4411 4.38687C14.3535 2.75187 15.566 1.28958 17.0786 0L19.0233 1.17444C19.3835 1.40472 19.5395 1.69257 19.4915 2.038C19.4675 2.36039 19.3595 2.6137 19.1674 2.79793C18.5431 3.53483 18.0029 4.43293 17.5468 5.49223C17.1146 6.55152 16.8385 7.69142 16.7184 8.91192C16.5984 10.1094 16.6584 11.3529 16.8985 12.6425C17.1386 13.9321 17.6308 15.1756 18.3751 16.3731C18.6872 16.8566 18.7712 17.2942 18.6272 17.6857C18.5071 18.0541 18.219 18.3305 17.7628 18.5147L13.8013 20Z" fill="white"/>
</svg>
