<svg width="57" height="61" viewBox="0 0 57 61" fill="none" xmlns="http://www.w3.org/2000/svg">
<g clip-path="url(#clip0_93_235)">
<path d="M39.4304 29.5685C39.8536 29.3148 40.2362 29.0146 40.5666 28.668C44.3991 24.6681 41.9423 16.4196 36.051 13.3977C28.4478 9.49463 21.6078 10.918 21.6078 10.918C21.6078 10.918 21.0938 18.4026 25.078 25.1135C27.1426 28.5857 31.1848 30.467 34.797 30.6016" stroke="#FF5038" stroke-width="2.5" stroke-miterlimit="10"/>
<path d="M30.4497 18.1121C33.7006 20.919 39.7388 27.5758 42.5637 36.7916" stroke="#FF5038" stroke-width="2.5" stroke-miterlimit="10" stroke-linecap="round" stroke-linejoin="round"/>
<path d="M47.8356 59.7576C47.3468 56.8983 46.6396 52.2497 46.9169 47.7202C46.9169 47.7202 48.5621 40.2937 51.8565 35.5493C51.8565 35.5493 62.3552 17.6027 46.7091 6.04851C46.7091 6.04851 32.8668 -4.23821 16.1214 5.28262C16.1214 5.28262 6.7821 9.33379 8.75681 22.29C8.75681 22.29 9.15677 25.9151 8.01291 27.6067L1.82793 34.8938C1.82793 34.8938 1.00481 37.0588 3.47513 37.265L7.24486 38.0445C7.24486 38.0445 8.82057 41.1274 8.97901 43.4967C9.13745 45.868 8.58484 48.7921 8.58484 48.7921C8.58484 48.7921 7.24486 52.3475 9.34903 53.9093C9.76252 54.011 11.3073 55.7683 22.3199 53.3952C22.3199 53.3952 23.3846 53.8996 24.0579 59.6685" stroke="#FF5038" stroke-width="2.5" stroke-miterlimit="10" stroke-linecap="round" stroke-linejoin="round"/>
<path d="M9.45239 43.6565L14.1834 43.7359" stroke="#FF5038" stroke-width="2.5" stroke-miterlimit="10" stroke-linecap="round" stroke-linejoin="round"/>
</g>
<defs>
<clipPath id="clip0_93_235">
<rect width="57" height="61" fill="white"/>
</clipPath>
</defs>
</svg>
