<svg width="57" height="61" viewBox="0 0 57 61" fill="none" xmlns="http://www.w3.org/2000/svg">
<g clip-path="url(#clip0_93_245)">
<path d="M48.8084 29.809V17.995C48.7957 16.0348 50.0629 14.4197 51.8143 14.4087C53.5629 14.3996 55.0036 15.9947 55.0162 17.9567V40.8882L44.5849 54.6177C44.5849 54.6177 43.454 55.9461 43.7891 60.8042" stroke="#FF5038" stroke-width="2.5" stroke-miterlimit="10" stroke-linejoin="round"/>
<path d="M31.3083 60.9182L31.321 50.2632C31.321 46.1234 36.1108 43.3211 36.1108 43.3211C38.2785 41.8561 40.7471 39.306 40.7471 39.306L44.8342 34.8393C46.5187 32.9993 48.952 32.4722 50.2391 33.6694C51.5289 34.8639 51.2037 37.3485 49.5192 39.1876L43.7738 45.4615" stroke="#FF5038" stroke-width="2.5" stroke-miterlimit="10"/>
<path d="M8.44771 29.8089L8.44591 17.994C8.45855 16.0338 7.19133 14.4187 5.43997 14.4078C3.69133 14.3986 2.25068 15.9938 2.23804 17.9558L2.23984 40.8881L12.6694 54.6177C12.6694 54.6177 13.8002 55.946 13.4651 60.8042" stroke="#FF5038" stroke-width="2.5" stroke-miterlimit="10" stroke-linejoin="round"/>
<path d="M25.9458 60.9182L25.9331 50.2632C25.9331 46.1234 21.1433 43.3211 21.1433 43.3211C18.9756 41.8561 16.5089 39.306 16.5089 39.306L12.42 34.8393C10.7372 32.9993 8.30396 32.4722 7.01505 33.6694C5.72705 34.8639 6.05221 37.3485 7.73673 39.1876L13.4822 45.4615" stroke="#FF5038" stroke-width="2.5" stroke-miterlimit="10"/>
<path d="M25.4499 24.0651C24.4825 21.7499 23.666 18.8683 23.666 15.7455C23.666 8.09952 28.5615 1.9021 28.5615 1.9021C28.5615 1.9021 33.457 8.09952 33.457 15.7455C33.457 23.3887 28.5615 29.5852 28.5615 29.5852" stroke="#FF5038" stroke-width="2.5" stroke-miterlimit="10" stroke-linecap="round" stroke-linejoin="round"/>
<path d="M18.8175 11.2597C15.5378 9.13657 12.6132 8.30078 12.6132 8.30078C12.6132 8.30078 11.7867 16.5749 16.208 22.7851C20.632 28.9953 24.9251 29.5852 28.6265 29.5852C32.3279 29.5852 36.6218 28.9962 41.0458 22.7851C45.468 16.5749 44.6407 8.30078 44.6407 8.30078C44.6407 8.30078 37.974 10.2054 33.5003 15.5753" stroke="#FF5038" stroke-width="2.5" stroke-miterlimit="10" stroke-linecap="round" stroke-linejoin="round"/>
</g>
<defs>
<clipPath id="clip0_93_245">
<rect width="56" height="61" fill="white" transform="translate(0.5)"/>
</clipPath>
</defs>
</svg>
