<svg width="57" height="61" viewBox="0 0 57 61" fill="none" xmlns="http://www.w3.org/2000/svg">
<g clip-path="url(#clip0_93_257)">
<path d="M34.1134 7.8435C34.1134 11.3435 31.261 14.1813 27.7436 14.1813C24.2245 14.1813 21.3721 11.3435 21.3721 7.8435C21.3721 4.34617 24.2245 1.5083 27.7436 1.5083C31.261 1.5083 34.1134 4.34617 34.1134 7.8435Z" stroke="#FF5038" stroke-width="2.5" stroke-linecap="round" stroke-linejoin="round"/>
<path d="M54.9071 49.1845L41.3204 41.1378L41.844 26.885C42.2449 19.352 34.98 19.5712 34.98 19.5712H21.5418C21.5418 19.5712 14.276 19.352 14.6769 26.885L15.1978 41.1378L1.61377 49.1845" stroke="#FF5038" stroke-width="2.5" stroke-linecap="round" stroke-linejoin="round"/>
<path d="M15.0564 59.4927H9.41903C7.21903 59.4927 5.41992 57.7025 5.41992 55.5144C5.41992 53.3246 6.49459 52.2372 9.12214 50.6344L20.7959 44.1702L20.235 27.1636" stroke="#FF5038" stroke-width="2.5" stroke-linecap="round" stroke-linejoin="round"/>
<path d="M36.285 27.1636L35.7258 44.1702L47.3961 50.6344C50.0263 52.2363 51.101 53.3246 51.101 55.5144C51.101 57.7025 49.301 59.4927 47.101 59.4927C47.101 59.4927 24.8636 59.4927 22.7898 59.4927C20.4601 59.4927 19.8485 58.0508 19.8485 58.0508C16.4601 51.2542 24.3347 51.5105 24.3347 51.5105H33.3712" stroke="#FF5038" stroke-width="2.5" stroke-linecap="round" stroke-linejoin="round"/>
</g>
<defs>
<clipPath id="clip0_93_257">
<rect width="56" height="61" fill="white" transform="translate(0.5)"/>
</clipPath>
</defs>
</svg>
