<svg width="450" height="410" viewBox="0 0 450 410" fill="none" xmlns="http://www.w3.org/2000/svg">
<path d="M213.207 1.24384C211.477 1.88181 208.469 3.06814 206.65 3.70611C204.827 4.43727 202.371 5.80282 201.275 6.80636C199.269 8.53748 194.08 18.5694 194.08 20.5729C194.08 21.2108 193.625 21.7592 193.078 21.7592C191.53 21.7592 189.525 27.8701 189.525 32.8842C189.525 35.5293 190.162 40.3607 190.889 43.5541C191.982 47.9303 192.075 49.665 191.255 50.5753C190.528 51.4857 190.345 54.3135 190.707 59.4209C191.344 68.9044 192.709 73.4633 194.986 74.1909C195.989 74.5565 196.988 75.8324 197.353 77.2016C197.991 80.4846 200.906 86.4127 203.273 89.3301C207.735 94.8926 207.098 106.29 201.726 117.232C197.081 126.805 194.531 128.54 183.33 129.45C162.745 131.275 152.181 135.923 147.719 145.224C144.897 150.876 143.163 162.091 142.164 181.33C141.616 190.631 140.617 203.122 139.797 209.139C139.07 215.157 137.885 226.648 137.154 234.669C135.786 249.077 134.057 256.736 131.235 259.377C130.508 260.109 126.225 263.209 121.673 266.216C117.211 269.133 110.016 274.424 105.916 277.979C97.536 284.817 87.3369 289.925 73.8574 293.753C66.2081 296.032 66.115 296.032 63.6583 294.301C62.2903 293.297 58.4656 291.473 55.0062 290.197C45.6272 286.642 42.1642 284.452 39.2492 279.803C35.2419 273.513 32.3268 271.051 30.6866 272.416C29.6839 273.237 28.8638 273.327 27.4994 272.599C26.2245 271.868 25.4975 271.868 25.0391 272.599C24.6739 273.148 24.4017 279.71 24.3086 287.097L24.2191 300.591L21.0319 299.222C12.9277 295.666 4.73046 293.294 2.45285 293.842C-1.28229 294.753 -0.644824 297.58 3.63823 298.767C7.82818 300.043 9.92315 302.232 8.46562 303.691C6.46375 305.698 9.10306 307.978 16.3907 310.257C24.4949 312.809 41.2546 314.906 47.1743 314.085C49.3588 313.813 51.092 313.813 51.092 314.175C51.092 314.537 50.1824 316.637 49.0902 318.916C47.45 322.106 46.9952 324.662 46.9952 329.948C46.9952 336.238 47.2674 337.425 50.1824 342.256C54.6446 349.915 68.124 363.137 78.4162 369.886C92.6226 379.276 117.852 390.677 129.419 392.863C131.786 393.319 138.161 393.774 143.443 393.867C148.725 393.957 153.098 394.233 153.098 394.505C153.098 394.777 151.185 396.967 148.908 399.429C144.263 404.354 143.898 407.089 147.633 409.096C149.273 410.006 152.367 410.189 159.472 409.823C170.309 409.185 171.494 408.913 185.793 403.806C191.441 401.799 199.91 399.336 204.555 398.426C209.2 397.516 213.845 396.236 214.847 395.691C216.033 395.053 223.865 394.688 236.886 394.688H257.012L266.301 398.336C279.509 403.626 290.528 404.809 296.447 401.802C297.812 401.071 297.994 400.25 297.54 397.333L296.992 393.777H306.919C319.395 393.777 323.675 392.867 337.974 387.122C360.654 378.093 376.135 368.431 388.977 355.575C403.366 341.077 406.371 332.231 401.271 319.741C399.996 316.641 398.994 314.089 398.994 313.995C398.994 313.813 400.723 313.995 402.911 314.178C409.103 314.909 425.863 312.719 433.695 310.257C440.979 307.978 443.622 305.698 441.62 303.691C440.163 302.232 442.258 300.043 446.448 298.767C448.908 298.036 450 297.218 450 296.122C450 292.383 442.895 293.115 431.876 298.129C428.689 299.587 426.046 300.774 425.956 300.774C425.956 300.774 425.867 294.939 425.774 287.735C425.774 272.782 425.408 271.047 422.676 272.506C421.218 273.327 420.398 273.237 419.396 272.416C417.755 271.047 414.479 273.875 411.109 279.62C408.559 283.907 404.279 286.731 395.806 289.925C392.802 291.018 388.884 292.842 387.154 293.935C385.03 295.273 381.994 295.395 378.048 294.301C362.384 290.014 352.002 284.728 341.617 275.972C337.881 272.778 331.142 267.764 326.59 264.757C317.301 258.557 315.753 256.188 314.296 246.339C312.111 230.931 309.469 203.118 308.831 187.255C307.646 161.449 305.096 148.048 299.814 141.482C295.076 135.554 282.964 130.812 269.668 129.812C265.932 129.54 261.563 129.081 260.106 128.809C256.009 128.261 250.816 122.791 247.536 115.86C245.169 110.752 244.621 108.383 244.349 101.545C243.984 93.3371 243.984 93.2475 247.081 89.2369C250.179 85.1332 251.726 81.7605 252.729 77.2016C253.001 75.8324 254.097 74.5565 255.006 74.1909C257.467 73.4633 258.741 69.0836 259.379 59.3277C259.744 53.2168 259.651 50.5753 258.831 50.1165C258.011 49.5682 258.104 48.0199 259.196 43.5505C261.291 34.5222 261.019 27.2285 258.376 23.4007C257.191 21.5764 255.096 17.6554 253.731 14.6484C250.999 8.44788 248.267 5.53042 243.894 3.88891C242.347 3.25094 239.342 2.15779 237.337 1.42663C232.603 -0.397669 217.666 -0.487275 213.204 1.24384H213.207ZM172.088 220.963C175.093 240.303 176.733 256.811 176.733 266.754C176.733 277.244 176.733 277.334 167.719 297.129C164.625 303.878 161.162 311.451 160.07 313.82C159.067 316.282 157.338 318.655 156.338 319.203C153.606 320.662 147.78 320.207 136.309 317.562C122.744 314.461 119.374 313.82 103.531 311.175C95.9746 309.988 89.6897 308.802 89.5106 308.619C89.0558 308.164 90.6924 307.705 100.347 305.426C118.375 301.229 146.508 290.011 154.705 283.717C158.713 280.706 161.263 276.42 161.263 272.771C161.263 271.219 162.265 266.112 163.54 261.37C166.273 250.697 168.364 235.737 169.184 220.504C169.456 213.935 169.822 208.738 170.004 208.921C170.187 209.01 171.096 214.483 172.099 220.96L172.088 220.963ZM282.843 242.045C283.663 248.063 285.303 257.094 286.485 262.109C287.76 267.126 289.034 272.778 289.31 274.696C290.13 280.352 294.045 283.817 307.252 290.29C322.006 297.587 336.033 302.329 358.348 307.619C359.716 307.985 360.808 308.44 360.532 308.623C360.349 308.806 352.883 310.264 343.865 311.723C334.848 313.275 322.006 315.737 315.359 317.286C308.713 318.744 301.153 320.02 298.693 320.02C293.045 320.02 290.768 317.924 287.856 309.712C286.764 306.612 284.393 301.229 282.574 297.674C280.844 294.208 278.019 287.731 276.382 283.355C273.65 276.334 273.285 274.416 273.285 266.94C273.285 256.815 277.381 220.791 279.752 208.935C279.845 208.569 280.3 213.404 280.662 219.698C281.117 225.992 282.119 236.024 282.846 242.045H282.843Z" fill="black" fill-opacity="0.05"/>
</svg>
