<svg width="551" height="551" viewBox="0 0 551 551" fill="none" xmlns="http://www.w3.org/2000/svg">
<path fill-rule="evenodd" clip-rule="evenodd" d="M541.038 275.567C541.073 422.219 422.218 541.074 275.567 541.038C128.914 541.001 9.99722 422.086 9.9623 275.433C9.92737 128.782 128.782 9.92737 275.433 9.96229C422.086 9.99861 541.001 128.914 541.038 275.567ZM275.564 551C427.719 551.038 551.036 427.721 551 275.564C550.962 123.411 427.589 0.0376962 275.436 7.97777e-06C123.281 -0.0362144 -0.0362271 123.281 7.98338e-06 275.436C0.0362426 427.589 123.411 550.962 275.564 551Z" fill="#EFEFEF"/>
<path fill-rule="evenodd" clip-rule="evenodd" d="M273.602 373.556L369.622 277.535L273.602 181.516L177.583 277.535L273.602 373.556ZM273.602 359.467L191.671 277.535L273.602 195.605L355.533 277.535L273.602 359.467Z" fill="#EFEFEF"/>
<path fill-rule="evenodd" clip-rule="evenodd" d="M273.711 195.655L369.73 99.6357L273.711 3.61672L177.692 99.6357L273.711 195.655ZM191.781 99.6357L273.711 17.7055L355.642 99.6357L273.711 181.566L191.781 99.6357Z" fill="#EFEFEF"/>
<path fill-rule="evenodd" clip-rule="evenodd" d="M97.2625 371.802L193.283 275.783L97.2625 179.764L1.24346 275.783L97.2625 371.802ZM97.2625 357.713L15.3323 275.783L97.2625 193.852L179.194 275.783L97.2625 357.713Z" fill="#EFEFEF"/>
<path fill-rule="evenodd" clip-rule="evenodd" d="M273.603 549.745L369.622 453.724L273.603 357.704L177.583 453.724L273.603 549.745ZM191.671 453.724L273.603 371.793L355.533 453.724L273.603 535.656L191.671 453.724Z" fill="#EFEFEF"/>
<path fill-rule="evenodd" clip-rule="evenodd" d="M452.62 371.802L548.639 275.783L452.62 179.764L356.599 275.783L452.62 371.802ZM370.688 275.783L452.62 193.852L534.55 275.783L452.62 357.713L370.688 275.783Z" fill="#EFEFEF"/>
<path fill-rule="evenodd" clip-rule="evenodd" d="M410.339 413.016C334.755 488.602 212.209 488.602 136.623 413.016C61.0376 337.432 61.0375 214.885 136.623 139.301C212.209 63.7151 334.755 63.7152 410.339 139.301C485.924 214.885 485.924 337.432 410.339 413.016ZM129.579 420.061C209.055 499.537 337.909 499.537 417.383 420.061C496.859 340.586 496.859 211.731 417.383 132.256C337.908 52.7802 209.055 52.7802 129.579 132.256C50.1026 211.731 50.1026 340.586 129.579 420.061C129.579 420.061 129.579 420.061 129.579 420.061Z" fill="#EFEFEF"/>
<path fill-rule="evenodd" clip-rule="evenodd" d="M332.972 336.394C300.334 369.032 247.416 369.032 214.776 336.394C214.776 336.394 214.776 336.394 214.776 336.394M214.776 336.394C182.138 303.754 182.138 250.836 214.776 218.198C247.416 185.56 300.334 185.56 332.972 218.198C365.61 250.836 365.61 303.754 332.972 336.394M340.016 343.438C376.545 306.908 376.545 247.682 340.016 211.153C303.488 174.625 244.262 174.625 207.732 211.153C171.203 247.682 171.203 306.908 207.732 343.438C244.262 379.966 303.488 379.967 340.016 343.438Z" fill="#EFEFEF"/>
<path fill-rule="evenodd" clip-rule="evenodd" d="M314.451 318.091C291.915 340.629 255.376 340.629 232.838 318.091C210.301 295.553 210.301 259.015 232.838 236.477C255.376 213.94 291.915 213.94 314.451 236.477C336.99 259.015 336.99 295.553 314.451 318.091ZM225.794 325.135C252.222 351.564 295.069 351.564 321.496 325.135C347.925 298.707 347.925 255.861 321.496 229.432M321.496 229.432C295.069 203.006 252.222 203.006 225.794 229.432C199.366 255.861 199.366 298.707 225.794 325.135" fill="#EFEFEF"/>
<path fill-rule="evenodd" clip-rule="evenodd" d="M277.874 308.621V242.426H267.912V308.621H277.874Z" fill="#EFEFEF"/>
<path fill-rule="evenodd" clip-rule="evenodd" d="M305.078 271.988H240.077V281.95H305.078V271.988Z" fill="#EFEFEF"/>
<path fill-rule="evenodd" clip-rule="evenodd" d="M272.628 305.098C257.1 305.098 244.512 292.51 244.512 276.981C244.512 261.453 257.1 248.865 272.628 248.865C288.156 248.865 300.745 261.453 300.745 276.981C300.745 292.51 288.156 305.098 272.628 305.098ZM234.549 276.981C234.549 298.012 251.598 315.06 272.628 315.06C293.658 315.06 310.707 298.012 310.707 276.981C310.707 255.951 293.658 238.903 272.628 238.903C251.598 238.903 234.549 255.951 234.549 276.981Z" fill="#EFEFEF"/>
</svg>
