<svg width="16" height="20" viewBox="0 0 16 20" fill="none" xmlns="http://www.w3.org/2000/svg">
<path d="M7.93755 7.23168L6.42138 8.59201C6.62041 9.2785 6.90044 9.93887 7.25555 10.5592C7.62514 11.1752 8.06976 11.743 8.57921 12.2495L10.5427 11.6445C11.6427 11.3053 12.8435 11.6537 13.575 12.5245L14.6934 13.8555C15.1462 14.3898 15.3732 15.0794 15.3263 15.7782C15.2794 16.477 14.9623 17.1301 14.4422 17.5992C12.618 19.2638 9.80938 19.8267 7.70655 18.1748C5.85841 16.7196 4.29468 14.9359 3.09388 12.9132C1.89045 10.9 1.08507 8.6743 0.721546 6.35718C0.318213 3.75018 2.22671 1.66385 4.60638 0.952513C6.02538 0.52718 7.53971 1.25685 8.06038 2.61718L8.67455 4.22135C9.07788 5.27735 8.78821 6.46901 7.93755 7.23168Z" fill="#FF5038"/>
</svg>
