<svg width="284" height="45" viewBox="0 0 284 45" fill="none" xmlns="http://www.w3.org/2000/svg">
<path d="M8.15268 12.3304V32.8587H4.34027V15.5269H0V12.3304H8.15268Z" fill="#FF5038"/>
<path d="M27.0933 29.6328V32.8587H11.961V30.3073L20.1136 22.5652C21.0325 21.6854 21.6484 20.9229 21.9612 20.2778C22.2935 19.613 22.4597 18.9581 22.4597 18.3129C22.4597 17.3549 22.1371 16.6218 21.492 16.1134C20.8468 15.6051 19.8986 15.351 18.6473 15.351C16.5554 15.351 14.9522 16.0646 13.8378 17.4918L11.1691 15.4389C11.9707 14.3637 13.046 13.5327 14.395 12.9462C15.7636 12.3401 17.2885 12.0371 18.9699 12.0371C21.1987 12.0371 22.9778 12.565 24.3073 13.6207C25.6367 14.6765 26.3015 16.1134 26.3015 17.9317C26.3015 19.0461 26.0668 20.092 25.5976 21.0696C25.1284 22.0471 24.2291 23.1615 22.8996 24.4128L17.4156 29.6328H27.0933Z" fill="#FF5038"/>
<path d="M52.2961 32.8587L48.1025 26.8468C47.9265 26.8664 47.6626 26.8762 47.3107 26.8762H42.6771V32.8587H38.8647V12.3304H47.3107C49.0898 12.3304 50.6343 12.6236 51.9442 13.2102C53.2737 13.7967 54.2903 14.6374 54.9941 15.7322C55.698 16.8271 56.0499 18.1272 56.0499 19.6326C56.0499 21.1771 55.6686 22.5066 54.9062 23.6209C54.1632 24.7353 53.0879 25.5662 51.6803 26.1137L56.4018 32.8587H52.2961ZM52.2081 19.6326C52.2081 18.3227 51.778 17.3158 50.9178 16.612C50.0576 15.9082 48.7965 15.5562 47.1347 15.5562H42.6771V23.7383H47.1347C48.7965 23.7383 50.0576 23.3863 50.9178 22.6825C51.778 21.9591 52.2081 20.9425 52.2081 19.6326Z" fill="#FF5038"/>
<path d="M75.2716 17.1985V32.8587H71.7818V30.8352C71.1757 31.5781 70.423 32.1353 69.5237 32.5068C68.6439 32.8782 67.6663 33.064 66.591 33.064C65.0661 33.064 63.6975 32.7316 62.4854 32.0669C61.2928 31.4022 60.3543 30.4637 59.6701 29.2516C59.0053 28.0394 58.673 26.6318 58.673 25.0286C58.673 23.4254 59.0053 22.0276 59.6701 20.835C60.3543 19.6228 61.2928 18.6844 62.4854 18.0196C63.6975 17.3549 65.0661 17.0226 66.591 17.0226C67.6077 17.0226 68.5363 17.1985 69.377 17.5504C70.2373 17.9023 70.9802 18.4204 71.6058 19.1047V17.1985H75.2716ZM67.0016 29.9261C68.3506 29.9261 69.465 29.4764 70.3448 28.5771C71.2246 27.6777 71.6645 26.4949 71.6645 25.0286C71.6645 23.5623 71.2246 22.3795 70.3448 21.4801C69.465 20.5808 68.3506 20.1311 67.0016 20.1311C65.6526 20.1311 64.5382 20.5808 63.6584 21.4801C62.7982 22.3795 62.3681 23.5623 62.3681 25.0286C62.3681 26.4949 62.7982 27.6777 63.6584 28.5771C64.5382 29.4764 65.6526 29.9261 67.0016 29.9261Z" fill="#FF5038"/>
<path d="M95.2294 17.1985V30.4833C95.2294 35.9966 92.5216 38.7533 87.1061 38.7533C85.6789 38.7533 84.3103 38.5577 83.0004 38.1667C81.71 37.7953 80.6445 37.2478 79.8038 36.5245L81.4461 33.7678C82.1108 34.3348 82.9222 34.7844 83.8802 35.1168C84.8382 35.4492 85.845 35.6154 86.9008 35.6154C88.5039 35.6154 89.677 35.2243 90.4199 34.4423C91.1824 33.6798 91.5636 32.497 91.5636 30.8938V30.1607C90.9771 30.8059 90.2635 31.3044 89.4228 31.6563C88.5822 31.9887 87.673 32.1549 86.6955 32.1549C84.6036 32.1549 82.9515 31.5781 81.7394 30.4246C80.5468 29.2711 79.9505 27.5409 79.9505 25.2339V17.1985H83.6162V24.7647C83.6162 26.1528 83.9291 27.1987 84.5547 27.9026C85.1999 28.5868 86.109 28.929 87.282 28.929C88.5919 28.929 89.6281 28.5282 90.3906 27.7266C91.1726 26.925 91.5636 25.7618 91.5636 24.2368V17.1985H95.2294Z" fill="#FF5038"/>
<path d="M104.868 33.064C103.597 33.064 102.356 32.8978 101.143 32.5654C99.9313 32.2331 98.9635 31.8127 98.2402 31.3044L99.6478 28.5184C100.352 28.9876 101.192 29.3689 102.17 29.6621C103.167 29.9358 104.144 30.0727 105.102 30.0727C107.292 30.0727 108.387 29.496 108.387 28.3425C108.387 27.795 108.104 27.4138 107.537 27.1987C106.989 26.9837 106.1 26.7784 104.868 26.5829C103.578 26.3874 102.522 26.1625 101.701 25.9084C100.899 25.6542 100.195 25.2143 99.5892 24.5887C99.0026 23.9435 98.7094 23.054 98.7094 21.92C98.7094 20.4342 99.3252 19.2513 100.557 18.3716C101.808 17.4722 103.49 17.0226 105.601 17.0226C106.676 17.0226 107.752 17.1496 108.827 17.4038C109.902 17.6384 110.782 17.961 111.466 18.3716L110.059 21.1575C108.729 20.3755 107.234 19.9845 105.572 19.9845C104.496 19.9845 103.675 20.1507 103.108 20.483C102.561 20.7959 102.287 21.2162 102.287 21.7441C102.287 22.3306 102.58 22.7509 103.167 23.0051C103.773 23.2397 104.702 23.4645 105.953 23.6796C107.204 23.8751 108.231 24.0999 109.032 24.3541C109.834 24.6083 110.518 25.0384 111.085 25.6445C111.672 26.2505 111.965 27.1108 111.965 28.2252C111.965 29.6915 111.329 30.8645 110.059 31.7443C108.788 32.6241 107.058 33.064 104.868 33.064Z" fill="#FF5038"/>
<path fill-rule="evenodd" clip-rule="evenodd" d="M161.979 22.3998C161.982 34.3207 152.321 43.982 140.4 43.979C128.479 43.9761 118.813 34.3099 118.81 22.389C118.807 10.4683 128.468 0.806969 140.389 0.809807C152.31 0.812759 161.976 10.4789 161.979 22.3998ZM140.4 44.7888C152.768 44.7919 162.792 34.7679 162.789 22.3996C162.786 10.0317 152.757 0.00307083 140.389 7.62939e-06C128.021 -0.00293732 117.997 10.0211 118 22.3892C118.003 34.7572 128.032 44.7858 140.4 44.7888Z" fill="#262261"/>
<path fill-rule="evenodd" clip-rule="evenodd" d="M140.24 30.3652L148.045 22.5601L140.24 14.755L132.435 22.5601L140.24 30.3652ZM140.24 29.22L133.58 22.5601L140.24 15.9003L146.9 22.5601L140.24 29.22Z" fill="#262261"/>
<path fill-rule="evenodd" clip-rule="evenodd" d="M140.249 15.9042L148.054 8.0992L140.249 0.294153L132.444 8.0992L140.249 15.9042ZM133.589 8.0992L140.249 1.43938L146.909 8.0992L140.249 14.759L133.589 8.0992Z" fill="#262261"/>
<path fill-rule="evenodd" clip-rule="evenodd" d="M125.906 30.2224L133.711 22.4173L125.906 14.6123L118.101 22.4173L125.906 30.2224ZM125.906 29.0771L119.246 22.4173L125.906 15.7575L132.566 22.4173L125.906 29.0771Z" fill="#262261"/>
<path fill-rule="evenodd" clip-rule="evenodd" d="M140.24 44.6867L148.045 36.8815L140.24 29.0764L132.435 36.8815L140.24 44.6867ZM133.58 36.8815L140.24 30.2216L146.9 36.8815L140.24 43.5415L133.58 36.8815Z" fill="#262261"/>
<path fill-rule="evenodd" clip-rule="evenodd" d="M154.792 30.2224L162.597 22.4173L154.792 14.6123L146.987 22.4173L154.792 30.2224ZM148.132 22.4173L154.792 15.7575L161.452 22.4173L154.792 29.0771L148.132 22.4173Z" fill="#262261"/>
<path fill-rule="evenodd" clip-rule="evenodd" d="M151.355 33.5724C145.211 39.7165 135.25 39.7165 129.106 33.5724L129.106 33.5724C122.962 27.4285 122.962 17.467 129.106 11.3231L128.819 11.0368L129.106 11.3231C135.25 5.179 145.211 5.179 151.355 11.3231L151.641 11.0368L151.355 11.3231C157.499 17.467 157.499 27.4285 151.355 33.5724L151.641 33.8587L151.355 33.5724ZM128.533 34.1451C134.993 40.6054 145.467 40.6054 151.928 34.1451C158.388 27.6848 158.388 17.2107 151.928 10.7505C145.467 4.29014 134.993 4.29014 128.533 10.7505C122.073 17.2107 122.073 27.6848 128.533 34.1451C128.533 34.1451 128.533 34.1451 128.533 34.1451Z" fill="#262261"/>
<path fill-rule="evenodd" clip-rule="evenodd" d="M145.066 27.3443C142.413 29.9974 138.112 29.9974 135.459 27.3444C135.459 27.3443 135.459 27.3443 135.459 27.3443M135.459 27.3443C132.805 24.6912 132.805 20.3897 135.459 17.7366C138.112 15.0836 142.413 15.0836 145.066 17.7366C147.719 20.3897 147.719 24.6912 145.066 27.3443M145.639 27.917L145.365 27.6433L145.639 27.917C148.608 24.9476 148.608 20.1333 145.639 17.164C142.67 14.1947 137.855 14.1947 134.886 17.164L135.172 17.4503L134.886 17.164C131.917 20.1333 131.917 24.9476 134.886 27.917L134.886 27.917C137.855 30.8862 142.67 30.8862 145.639 27.917Z" fill="#262261"/>
<path fill-rule="evenodd" clip-rule="evenodd" d="M143.561 25.8566C141.729 27.6886 138.759 27.6886 136.927 25.8566C135.095 24.0246 135.095 21.0545 136.927 19.2225C138.759 17.3906 141.729 17.3906 143.561 19.2225L143.561 19.2225C145.393 21.0545 145.393 24.0246 143.561 25.8566L143.561 25.8566ZM136.354 26.4292C138.502 28.5775 141.985 28.5775 144.133 26.4292C146.282 24.281 146.282 20.7981 144.133 18.6499M144.133 18.6498C141.985 16.5017 138.502 16.5017 136.354 18.6498L136.354 18.6499C134.206 20.7981 134.206 24.2809 136.354 26.4292" fill="#262261"/>
<path fill-rule="evenodd" clip-rule="evenodd" d="M140.587 25.0869V19.7061H139.778V25.0869H140.587Z" fill="#262261"/>
<path fill-rule="evenodd" clip-rule="evenodd" d="M142.799 22.1091H137.515V22.9189H142.799V22.1091Z" fill="#262261"/>
<path fill-rule="evenodd" clip-rule="evenodd" d="M140.161 24.8003C138.899 24.8003 137.875 23.7771 137.875 22.5148C137.875 21.2526 138.899 20.2293 140.161 20.2293C141.423 20.2293 142.446 21.2526 142.446 22.5148C142.446 23.7771 141.423 24.8003 140.161 24.8003ZM137.066 22.5148C137.066 24.2243 138.451 25.6101 140.161 25.6101C141.87 25.6101 143.256 24.2243 143.256 22.5148C143.256 20.8053 141.87 19.4195 140.161 19.4195C138.451 19.4195 137.066 20.8053 137.066 22.5148Z" fill="#262261"/>
<path d="M178.453 33.4205C176.87 33.4205 175.335 33.1956 173.849 32.746C172.383 32.2963 171.22 31.7 170.359 30.9571L171.679 27.9951C172.52 28.6599 173.546 29.2073 174.758 29.6374C175.99 30.048 177.222 30.2532 178.453 30.2532C179.978 30.2532 181.112 30.0089 181.855 29.5201C182.618 29.0313 182.999 28.3861 182.999 27.5846C182.999 26.998 182.784 26.519 182.354 26.1476C181.943 25.7566 181.415 25.4535 180.77 25.2385C180.125 25.0234 179.245 24.779 178.131 24.5053C176.567 24.1338 175.296 23.7624 174.318 23.3909C173.36 23.0195 172.53 22.4427 171.826 21.6607C171.141 20.8591 170.799 19.7838 170.799 18.4348C170.799 17.3008 171.102 16.2744 171.708 15.3555C172.334 14.4171 173.263 13.6742 174.494 13.1268C175.746 12.5793 177.271 12.3056 179.069 12.3056C180.32 12.3056 181.552 12.462 182.764 12.7748C183.976 13.0877 185.022 13.5373 185.902 14.1238L184.7 17.0858C183.801 16.5579 182.862 16.1571 181.885 15.8834C180.907 15.6097 179.959 15.4729 179.04 15.4729C177.535 15.4729 176.41 15.727 175.667 16.2353C174.944 16.7437 174.582 17.4182 174.582 18.2588C174.582 18.8454 174.788 19.3244 175.198 19.6958C175.628 20.0673 176.166 20.3605 176.811 20.5756C177.456 20.7907 178.336 21.035 179.45 21.3088C180.975 21.6607 182.227 22.0321 183.204 22.4232C184.182 22.7946 185.013 23.3714 185.697 24.1534C186.401 24.9354 186.753 25.9912 186.753 27.3206C186.753 28.4546 186.44 29.481 185.814 30.3999C185.208 31.3188 184.28 32.0519 183.028 32.5993C181.777 33.1468 180.252 33.4205 178.453 33.4205Z" fill="#FF5038"/>
<path d="M197.366 33.3325C195.743 33.3325 194.287 32.9904 192.996 32.3061C191.706 31.6218 190.699 30.6736 189.976 29.4614C189.252 28.2297 188.891 26.8416 188.891 25.2971C188.891 23.7526 189.252 22.3743 189.976 21.1621C190.699 19.95 191.696 19.0018 192.967 18.3175C194.257 17.6332 195.724 17.2911 197.366 17.2911C198.911 17.2911 200.26 17.6039 201.413 18.2295C202.586 18.8551 203.466 19.7545 204.052 20.9275L201.237 22.5698C200.787 21.8464 200.22 21.3088 199.536 20.9568C198.871 20.5854 198.138 20.3996 197.337 20.3996C195.968 20.3996 194.834 20.8493 193.935 21.7487C193.036 22.6284 192.586 23.8113 192.586 25.2971C192.586 26.783 193.026 27.9756 193.906 28.8749C194.805 29.7547 195.949 30.1946 197.337 30.1946C198.138 30.1946 198.871 30.0186 199.536 29.6667C200.22 29.2953 200.787 28.7478 201.237 28.0245L204.052 29.6667C203.446 30.8398 202.557 31.7489 201.384 32.3941C200.23 33.0197 198.891 33.3325 197.366 33.3325Z" fill="#FF5038"/>
<path d="M215.964 17.2911C217.938 17.2911 219.522 17.8678 220.715 19.0213C221.907 20.1748 222.504 21.8855 222.504 24.1534V33.1272H218.838V24.6226C218.838 23.2541 218.515 22.2276 217.87 21.5434C217.225 20.8395 216.306 20.4876 215.113 20.4876C213.764 20.4876 212.699 20.8982 211.917 21.7193C211.135 22.5209 210.744 23.6842 210.744 25.2091V33.1272H207.078V11.3672H210.744V19.2853C211.35 18.6401 212.093 18.1513 212.973 17.8189C213.872 17.467 214.869 17.2911 215.964 17.2911Z" fill="#FF5038"/>
<path d="M234.335 33.3325C232.752 33.3325 231.325 32.9904 230.054 32.3061C228.783 31.6218 227.786 30.6736 227.062 29.4614C226.359 28.2297 226.007 26.8416 226.007 25.2971C226.007 23.7526 226.359 22.3743 227.062 21.1621C227.786 19.95 228.783 19.0018 230.054 18.3175C231.325 17.6332 232.752 17.2911 234.335 17.2911C235.938 17.2911 237.375 17.6332 238.646 18.3175C239.917 19.0018 240.904 19.95 241.608 21.1621C242.332 22.3743 242.693 23.7526 242.693 25.2971C242.693 26.8416 242.332 28.2297 241.608 29.4614C240.904 30.6736 239.917 31.6218 238.646 32.3061C237.375 32.9904 235.938 33.3325 234.335 33.3325ZM234.335 30.1946C235.684 30.1946 236.799 29.7449 237.679 28.8456C238.558 27.9463 238.998 26.7634 238.998 25.2971C238.998 23.8308 238.558 22.648 237.679 21.7487C236.799 20.8493 235.684 20.3996 234.335 20.3996C232.986 20.3996 231.872 20.8493 230.992 21.7487C230.132 22.648 229.702 23.8308 229.702 25.2971C229.702 26.7634 230.132 27.9463 230.992 28.8456C231.872 29.7449 232.986 30.1946 234.335 30.1946Z" fill="#FF5038"/>
<path d="M253.237 33.3325C251.653 33.3325 250.226 32.9904 248.955 32.3061C247.685 31.6218 246.687 30.6736 245.964 29.4614C245.26 28.2297 244.908 26.8416 244.908 25.2971C244.908 23.7526 245.26 22.3743 245.964 21.1621C246.687 19.95 247.685 19.0018 248.955 18.3175C250.226 17.6332 251.653 17.2911 253.237 17.2911C254.84 17.2911 256.277 17.6332 257.548 18.3175C258.819 19.0018 259.806 19.95 260.51 21.1621C261.233 22.3743 261.595 23.7526 261.595 25.2971C261.595 26.8416 261.233 28.2297 260.51 29.4614C259.806 30.6736 258.819 31.6218 257.548 32.3061C256.277 32.9904 254.84 33.3325 253.237 33.3325ZM253.237 30.1946C254.586 30.1946 255.7 29.7449 256.58 28.8456C257.46 27.9463 257.9 26.7634 257.9 25.2971C257.9 23.8308 257.46 22.648 256.58 21.7487C255.7 20.8493 254.586 20.3996 253.237 20.3996C251.888 20.3996 250.774 20.8493 249.894 21.7487C249.034 22.648 248.603 23.8308 248.603 25.2971C248.603 26.7634 249.034 27.9463 249.894 28.8456C250.774 29.7449 251.888 30.1946 253.237 30.1946Z" fill="#FF5038"/>
<path d="M270.262 33.3325C268.639 33.3325 267.368 32.8926 266.449 32.0128C265.55 31.1135 265.1 29.8525 265.1 28.2297V11.3672H268.766V27.9658C268.766 29.5299 269.499 30.3119 270.966 30.3119C271.454 30.3119 271.894 30.2141 272.285 30.0186L272.461 32.9513C271.777 33.2054 271.044 33.3325 270.262 33.3325Z" fill="#FF5038"/>
</svg>
