<svg width="25" height="23" viewBox="0 0 25 23" fill="none" xmlns="http://www.w3.org/2000/svg">
<g clip-path="url(#clip0_170_512)">
<path d="M0.5 8.625C0.5 3.85969 3.37679 0 6.92857 0H7.35714C8.30536 0 9.07143 1.02781 9.07143 2.3C9.07143 3.57219 8.30536 4.6 7.35714 4.6H6.92857C5.27321 4.6 3.92857 6.40406 3.92857 8.625V9.2H7.35714C9.24821 9.2 10.7857 11.2628 10.7857 13.8V18.4C10.7857 20.9372 9.24821 23 7.35714 23H3.92857C2.0375 23 0.5 20.9372 0.5 18.4V16.1V13.8V8.625ZM14.2143 8.625C14.2143 3.85969 17.0911 0 20.6429 0H21.0714C22.0196 0 22.7857 1.02781 22.7857 2.3C22.7857 3.57219 22.0196 4.6 21.0714 4.6H20.6429C18.9875 4.6 17.6429 6.40406 17.6429 8.625V9.2H21.0714C22.9625 9.2 24.5 11.2628 24.5 13.8V18.4C24.5 20.9372 22.9625 23 21.0714 23H17.6429C15.7518 23 14.2143 20.9372 14.2143 18.4V16.1V13.8V8.625Z" fill="#F46150"/>
</g>
<defs>
<clipPath id="clip0_170_512">
<rect width="24" height="23" fill="white" transform="translate(0.5)"/>
</clipPath>
</defs>
</svg>
