<svg width="102" height="26" viewBox="0 0 102 26" fill="none" xmlns="http://www.w3.org/2000/svg">
<g clip-path="url(#clip0_301_115)">
<path d="M0 1.0014L10.3629 17.9163H10.0954C8.25686 17.9163 6.75257 19.3203 6.68571 21.092C6.61886 22.9306 7.92257 24.5686 9.76114 24.8694C9.96172 24.9029 10.1957 24.9363 10.3963 24.9363C11.8003 24.9363 13.2377 24.2009 13.7057 22.7969C15.2769 18.0834 19.656 5.78169 21.294 1.0014H20.7257C19.4889 4.51141 17.0151 11.6986 15.0763 17.2143L5.24829 1.0014H0ZM7.254 21.1254C7.32086 19.6546 8.59114 18.4511 10.0954 18.4511H14.6417C14.0734 20.1226 13.572 21.56 13.2043 22.6297C12.8366 23.666 11.6331 24.368 10.3294 24.368C8.59114 24.368 7.18714 22.8637 7.254 21.1254Z" fill="#FF5038"/>
<path d="M20.6355 12.668C20.6355 21.1923 27.7224 24.8026 34.6087 24.836C41.5284 24.8026 48.5818 21.1923 48.5818 12.668C48.5818 4.31086 41.5284 0.5 34.6087 0.5C27.6889 0.5 20.6355 4.31086 20.6355 12.668ZM34.6087 1.03486C39.6229 1.03486 43.6678 3.97657 43.6678 12.668C43.6678 21.3929 39.6229 24.3346 34.6087 24.3346C29.5944 24.3346 25.5495 21.3929 25.5495 12.668C25.5495 3.97657 29.5944 1.03486 34.6087 1.03486Z" fill="#FF5038"/>
<path d="M50.9304 12.668C50.9304 19.6211 56.1452 24.836 64.0344 24.836C71.6561 24.836 74.8318 20.7577 75.9684 17.0471V24.3011H76.5032V12.4674H71.7564C71.7564 12.4674 72.4584 24.2009 64.0344 24.2009C59.0201 24.2009 56.0115 20.156 56.0115 12.668C56.0115 5.58114 58.3515 1.06828 64.0344 1.06828C67.4441 1.06828 72.6255 2.40543 73.3275 6.45028L73.8624 6.38343C73.4278 3.74257 70.3189 0.5 64.0344 0.5C56.1452 0.5 50.9304 5.648 50.9304 12.668Z" fill="#FF5038"/>
<path d="M79.1643 24.3011H79.766L83.042 14.774H92.5691L96.2797 24.3011H101.261L92.2348 1.0014H87.1871L79.1643 24.3011ZM87.5214 1.73684L92.3685 14.2057H83.2425L87.5214 1.73684Z" fill="#FF5038"/>
</g>
<defs>
<clipPath id="clip0_301_115">
<rect width="102" height="25" fill="white" transform="translate(0 0.5)"/>
</clipPath>
</defs>
</svg>
